<?xml version="1.0" encoding="UTF-8"?>
<svg version="1.1" xmlns="http://www.w3.org/2000/svg" width="1024" height="1024">
<path d="M0 0 C337.92 0 675.84 0 1024 0 C1024 337.92 1024 675.84 1024 1024 C686.08 1024 348.16 1024 0 1024 C0 686.08 0 348.16 0 0 Z " fill="#FEFEFE" transform="translate(0,0)"/>
<path d="M0 0 C0.33 0 0.66 0 1 0 C0.61282393 15.90941669 -8.32158814 30.71710017 -19.625 41.55859375 C-27.602634 48.72814844 -36.1756187 55.36771174 -44.73046875 61.83203125 C-57.99794007 71.89911038 -71.8304797 84.73715865 -75.59375 101.671875 C-78.09546878 122.16672501 -74.44546613 138.80167178 -62.04296875 155.66015625 C-53.51888861 166.39828318 -43.85221826 176.24486275 -34.05175781 185.80932617 C-17.01114585 202.49976447 -3.38192203 222.24743354 -2.58129883 246.82421875 C-2.49235704 257.70976987 -4.45130164 267.69334564 -8 278 C-7.50935059 277.70456299 -7.01870117 277.40912598 -6.51318359 277.10473633 C4.32702854 270.58083586 15.1889482 264.095846 26.09130859 257.67626953 C30.29262858 255.20034381 34.48622652 252.71448834 38.65234375 250.1796875 C39.35125732 249.75518311 40.0501709 249.33067871 40.77026367 248.89331055 C42.05273852 248.11218547 43.33300374 247.3274162 44.6105957 246.53833008 C48.7799764 244 48.7799764 244 51 244 C51 209.35 51 174.7 51 139 C15.36 139 -20.28 139 -57 139 C-62 126 -62 126 -62 120 C-18.44 120 25.12 120 70 120 C70 126.6 70 133.2 70 140 C90.46 140 110.92 140 132 140 C137.29166195 161.16664778 135.19885302 178.51953556 125 198 C114.38910573 215.56739467 99.95492265 227.3255679 81 235 C80.17628906 235.37253906 79.35257813 235.74507812 78.50390625 236.12890625 C75.8406834 237.05542528 73.7979566 237.15988323 71 237 C71.15082031 238.134375 71.30164063 239.26875 71.45703125 240.4375 C71.57905103 241.95805417 71.69734266 243.47891072 71.8125 245 C71.92142578 245.74378906 72.03035156 246.48757813 72.14257812 247.25390625 C72.29569558 249.96290742 72.1400204 251.51892335 71 254 C67.55085541 256.87175326 63.77411241 258.95223241 59.82022095 261.02905273 C56.99437949 262.53642086 54.2688662 264.20478039 51.52734375 265.859375 C49.33132318 267.1572556 47.13469429 268.45410739 44.9375 269.75 C42.56721374 271.15020596 40.19753385 272.55143487 37.828125 273.953125 C37.24528244 274.29786865 36.66243988 274.6426123 36.06193542 274.99780273 C30.01155822 278.57968136 23.98452902 282.20029076 17.97045898 285.84277344 C11.04439221 290.02062289 4.03114032 293.98220553 -3 298 C14.82 298.33 32.64 298.66 51 299 C51 305.27 51 311.54 51 318 C-13.02 318 -77.04 318 -143 318 C-143 311.73 -143 305.46 -143 299 C-116.27 298.505 -116.27 298.505 -89 298 C-92.8775 295.7725 -96.755 293.545 -100.75 291.25 C-111.32768257 285.15655754 -121.83432563 278.95781982 -132.28076172 272.64208984 C-137.15472806 269.69880581 -142.03624788 266.76809448 -146.91793823 263.83764648 C-148.59688006 262.82938695 -150.27513063 261.81997663 -151.95336914 260.81054688 C-152.97164795 260.19888672 -153.98992676 259.58722656 -155.0390625 258.95703125 C-155.94865723 258.41022705 -156.85825195 257.86342285 -157.79541016 257.30004883 C-159.17149012 256.4885731 -160.57112942 255.71443529 -162 255 C-162 210.45 -162 165.9 -162 120 C-145.17 120 -128.34 120 -111 120 C-109 134 -109 134 -109 139 C-120.22 139 -131.44 139 -143 139 C-143.43572767 152.30172954 -143.76288154 165.59438674 -143.90415287 178.90256596 C-143.97400569 185.08388428 -144.08957317 191.25699697 -144.31323242 197.43481445 C-146.7347378 223.02593816 -146.7347378 223.02593816 -139.70889282 246.59796143 C-134.03369847 252.0262278 -127.54945557 254.6650798 -120.13052368 256.95968628 C-115.70939313 258.42888544 -112.07414877 260.70968028 -108.19140625 263.234375 C-106.91033284 264.00166967 -105.62555874 264.76282414 -104.33691406 265.51733398 C-103.71917114 265.8828537 -103.10142822 266.24837341 -102.46496582 266.62496948 C-101.15399374 267.40021789 -99.84286806 268.17520658 -98.53161621 268.94998169 C-91.29098714 273.22953586 -84.08433728 277.54057134 -76.9753418 282.03686523 C-66.64100868 288.54131604 -56.82948171 293.2354179 -44.265625 292.8203125 C-37.91091686 291.22403414 -35.22652725 286.36474173 -32 281 C-31.3296875 279.91976563 -30.659375 278.83953125 -29.96875 277.7265625 C-22.46022786 264.77128454 -20.91945996 250.4606187 -24.0625 235.8125 C-30.40405475 214.04474463 -49.27788762 197.57791731 -64.9375 182.125 C-74.19613403 172.94317659 -81.46301071 163.27922482 -88 152 C-88.4125 151.30261719 -88.825 150.60523438 -89.25 149.88671875 C-97.90004895 134.10713726 -99.62383687 113.34113963 -95.04052734 96.02832031 C-86.88332086 68.81978744 -65.70799578 51.65380199 -42.2734375 37.53515625 C-41.26885498 36.92953857 -40.26427246 36.3239209 -39.22924805 35.69995117 C-37.25635578 34.51627915 -35.27889365 33.34017818 -33.29614258 32.1730957 C-20.21110026 24.36155349 -9.19783318 15.28611668 -1.34765625 2.125 C-0.90292969 1.42375 -0.45820312 0.7225 0 0 Z " fill="#86542C" transform="translate(548,295)"/>
<path d="M0 0 C15.88756613 6.33200099 26.82974611 28.16325909 33.3125 42.8515625 C35.78739873 48.74587331 37.57090691 54.76717322 39 61 C39.17515137 61.74064697 39.35030273 62.48129395 39.53076172 63.24438477 C44.50755408 85.74206119 40.53700347 109.5913332 28.375 129.125 C21.76065128 138.62380155 13.21717203 145.66867676 3 151 C2.04988037 151.52968384 2.04988037 151.52968384 1.08056641 152.07006836 C-7.77059501 156.80066676 -17.32650762 159.61640022 -26.84130859 162.69506836 C-35.04750935 165.36186833 -42.78073393 167.90354666 -50.03710938 172.70532227 C-51.9655463 173.97727513 -53.916098 175.0080416 -56 176 C-48.52910809 161.92024218 -36.49383071 154.94407174 -22.875 147.4375 C-2.69491859 136.28618343 11.82115701 123.77396411 18.9375 101.4375 C20.83976528 94.57170811 21.18184709 87.70243796 21.1875 80.625 C21.19974609 79.82578125 21.21199219 79.0265625 21.22460938 78.203125 C21.24536196 69.65305891 19.26875822 62.01492991 16.25 54.0625 C15.9912207 53.37736328 15.73244141 52.69222656 15.46582031 51.98632812 C13.27150869 46.35893788 10.79193008 40.75133408 7 36 C6.34 36 5.68 36 5 36 C3.79555832 37.56064248 2.66287067 39.17681387 1.5625 40.8125 C-13.01069212 61.22020171 -34.20133184 72.02779577 -56.0703125 83.078125 C-77.29405968 93.83348356 -93.13714281 105.12034151 -102 128 C-104.34529631 135.225582 -105.51436491 142.43079096 -106 150 C-106.66 150 -107.32 150 -108 150 C-112.63957055 129.61902935 -110.84714357 109.99399451 -100 92 C-89.25426274 77.25297093 -72.72529585 68.92956341 -56.83984375 60.859375 C-40.57421411 52.74340962 -40.57421411 52.74340962 -26 42 C-25.21238281 41.32066406 -24.42476562 40.64132812 -23.61328125 39.94140625 C-12.21955791 29.39882693 -4.68205805 14.63415354 0 0 Z " fill="#BF9647" transform="translate(553,221)"/>
<path d="M0 0 C0.33 0 0.66 0 1 0 C0.61282393 15.90941669 -8.32158814 30.71710017 -19.625 41.55859375 C-27.602634 48.72814844 -36.1756187 55.36771174 -44.73046875 61.83203125 C-57.99794007 71.89911038 -71.8304797 84.73715865 -75.59375 101.671875 C-78.09546878 122.16672501 -74.44546613 138.80167178 -62.04296875 155.66015625 C-53.51888861 166.39828318 -43.85221826 176.24486275 -34.05175781 185.80932617 C-17.01121272 202.49969897 -3.38200374 222.24728931 -2.58129883 246.82397461 C-2.51005799 255.5440386 -3.69505744 263.57321459 -6 272 C-6.20238281 273.17820312 -6.40476562 274.35640625 -6.61328125 275.5703125 C-8.55361785 280.36922951 -11.37948738 281.78824854 -15.8125 284.1875 C-16.57062988 284.61458252 -17.32875977 285.04166504 -18.10986328 285.48168945 C-24.40311626 288.91659691 -30.87775601 291.80565447 -38 293 C-38.99 292.67 -39.98 292.34 -41 292 C-40.43152344 291.35675781 -39.86304688 290.71351563 -39.27734375 290.05078125 C-26.51567146 275.11600282 -21.80866122 261.46493852 -23 242 C-26.28104134 217.27287934 -48.10182486 198.73845693 -64.9375 182.125 C-74.19613403 172.94317659 -81.46301071 163.27922482 -88 152 C-88.4125 151.30261719 -88.825 150.60523438 -89.25 149.88671875 C-97.90004895 134.10713726 -99.62383687 113.34113963 -95.04052734 96.02832031 C-86.88332086 68.81978744 -65.70799578 51.65380199 -42.2734375 37.53515625 C-41.26885498 36.92953857 -40.26427246 36.3239209 -39.22924805 35.69995117 C-37.25635578 34.51627915 -35.27889365 33.34017818 -33.29614258 32.1730957 C-20.21110026 24.36155349 -9.19783318 15.28611668 -1.34765625 2.125 C-0.90292969 1.42375 -0.45820312 0.7225 0 0 Z " fill="#BE9647" transform="translate(548,295)"/>
<path d="M0 0 C8.14042772 5.8689486 13.34628651 12.03261777 15 22 C15.98187317 32.47867921 13.34419251 41.00696129 6.76953125 49.24609375 C-0.83548589 56.78395842 -10.78352384 58.49362287 -21.02661133 58.50195312 C-30.32647952 58.25292531 -37.55510874 54.95802787 -44 48.1875 C-45.04531344 46.82527002 -46.04814944 45.42910154 -47 44 C-47.43183594 43.35675781 -47.86367188 42.71351563 -48.30859375 42.05078125 C-52.12729409 35.11369586 -52.22743166 26.68578706 -51 19 C-48.00800385 9.34699054 -42.38669878 3.16864634 -33.8125 -1.875 C-23.40899234 -6.03640306 -9.75623129 -5.53050801 0 0 Z " fill="#85552F" transform="translate(698,670)"/>
<path d="M0 0 C7.94426357 5.63422948 12.05078598 11.34018542 14.75 20.5625 C15.66775035 29.51056591 14.56953688 37.78949119 9.3515625 45.40625 C7.65421774 47.39266221 5.904221 49.21262893 4 51 C3.195625 51.763125 2.39125 52.52625 1.5625 53.3125 C-7.33653444 59.17283975 -17.7143716 59.36259772 -28 58 C-36.71289451 55.39996164 -42.69221897 50.70565466 -47.20703125 42.91796875 C-51.29216616 35.13744678 -51.95001478 27.76936716 -51 19 C-47.90045543 9.43569104 -42.71159414 3.76643941 -34.3125 -1.3125 C-24.29971107 -6.41335474 -9.67037313 -5.54295655 0 0 Z " fill="#85552F" transform="translate(432,670)"/>
<path d="M0 0 C5.07375 -0.061875 10.1475 -0.12375 15.375 -0.1875 C16.95458496 -0.21481201 18.53416992 -0.24212402 20.16162109 -0.27026367 C31.11954359 -0.33468944 40.20333745 0.2546572 48.37109375 8.19140625 C52.90121373 13.22125169 53.50498151 17.68552486 53.2734375 24.2578125 C52.65885465 30.42120053 50.95505951 34.43960348 46.5 38.8125 C37.20550657 46.18747848 26.23284915 45.28802177 15 45 C15 50.61 15 56.22 15 62 C10.05 62 5.1 62 0 62 C0 41.54 0 21.08 0 0 Z " fill="#895A35" transform="translate(456,666)"/>
<path d="M0 0 C8.3840625 -0.12375 8.3840625 -0.12375 16.9375 -0.25 C18.68281006 -0.28641602 20.42812012 -0.32283203 22.22631836 -0.36035156 C31.95694089 -0.47833006 38.59405789 0.47438558 46.875 5.875 C51.28665241 10.28665241 52.43068227 14.75267981 52.4375 20.875 C52.26488318 27.70055662 51.4376078 32.69002615 46.421875 37.51953125 C39.40159079 43.00610472 32.14709373 43.28569074 23.5625 43.125 C22.64017578 43.11597656 21.71785156 43.10695313 20.76757812 43.09765625 C18.51160502 43.07427829 16.25576717 43.0384142 14 43 C14 48.61 14 54.22 14 60 C9.38 60 4.76 60 0 60 C0 40.2 0 20.4 0 0 Z " fill="#84532D" transform="translate(723,667)"/>
<path d="M0 0 C4.95 0 9.9 0 15 0 C15 7.92 15 15.84 15 24 C23.58 24 32.16 24 41 24 C41 16.41 41 8.82 41 1 C45.95 1 50.9 1 56 1 C56 21.13 56 41.26 56 62 C51.05 62 46.1 62 41 62 C41 53.75 41 45.5 41 37 C32.42 37 23.84 37 15 37 C15 45.25 15 53.5 15 62 C10.05 62 5.1 62 0 62 C0 41.54 0 21.08 0 0 Z " fill="#8A5B37" transform="translate(581,666)"/>
<path d="M0 0 C4.95 0 9.9 0 15 0 C15 20.46 15 40.92 15 62 C10.05 62 5.1 62 0 62 C0 53.75 0 45.5 0 37 C-8.91 37 -17.82 37 -27 37 C-27 44.92 -27 52.84 -27 61 C-31.62 61 -36.24 61 -41 61 C-41 41.2 -41 21.4 -41 1 C-36.38 1 -31.76 1 -27 1 C-27 8.59 -27 16.18 -27 24 C-18.09 24 -9.18 24 0 24 C0 16.08 0 8.16 0 0 Z " fill="#875732" transform="translate(356,666)"/>
<path d="M0 0 C14.52 0 29.04 0 44 0 C42.71454941 17.99630825 37.87521979 31.85791428 24.8125 44.3125 C21.05128895 47.42476971 17.01459513 49.97271943 12.8125 52.4375 C12.23024658 52.78014893 11.64799316 53.12279785 11.0480957 53.47583008 C7.12501942 55.66536319 4.64204672 56.22632555 0 57 C0 38.19 0 19.38 0 0 Z " fill="#FEFDFB" transform="translate(619,455)"/>
<path d="M0 0 C3.59989694 1.98139489 6.80000893 4.42475846 9.9375 7.06640625 C8.01462966 11.36019438 5.31271131 13.83794326 1.9375 17.06640625 C-0.0355842 16.10159415 -1.96608389 15.12408751 -3.8515625 13.99609375 C-9.19153952 10.92844737 -13.9567091 9.96154885 -20.0625 11.06640625 C-25.08973788 13.01856392 -29.03749689 16.09395548 -31.44140625 20.9765625 C-33.08364289 26.50232729 -32.77120683 32.05218685 -30.875 37.44140625 C-27.93366041 41.70127738 -24.89047356 45.07166763 -20.0625 47.06640625 C-13.03269401 48.09457515 -8.04284191 46.64416538 -2.0625 43.06640625 C-0.7425 42.40640625 0.5775 41.74640625 1.9375 41.06640625 C4.5775 43.37640625 7.2175 45.68640625 9.9375 48.06640625 C6.79097112 54.359464 2.70683562 57.11463647 -3.81494141 59.44897461 C-7.67873683 60.51040614 -11.44924161 60.59815478 -15.4375 60.56640625 C-16.27313477 60.56068604 -17.10876953 60.55496582 -17.96972656 60.54907227 C-26.75169346 60.2950555 -32.5111995 57.64716173 -38.9375 51.69140625 C-46.56916703 43.4297667 -47.6168097 35.22861541 -47.40234375 24.34765625 C-46.9694934 16.12888786 -42.88927589 10.03178476 -36.96484375 4.53515625 C-27.03038661 -3.13497904 -11.66164 -4.71476461 0 0 Z " fill="#865530" transform="translate(296.0625,667.93359375)"/>
<path d="M0 0 C1.12341797 0.75603516 1.12341797 0.75603516 2.26953125 1.52734375 C4.1875 3.0625 4.1875 3.0625 6.1875 6.0625 C3.5475 8.7025 0.9075 11.3425 -1.8125 14.0625 C-5.8125 12.0625 -5.8125 12.0625 -8.875 9.9375 C-13.65261126 7.22061806 -18.47306768 7.18793781 -23.8125 8.0625 C-28.79303783 9.93850258 -32.80487128 13.02861456 -35.18359375 17.9140625 C-36.77719108 23.35802852 -36.88902975 29.1234785 -34.9296875 34.47265625 C-32.29727172 39.13604182 -28.99905363 42.49582995 -23.8125 44.0625 C-17.98856363 44.97657073 -13.38240622 44.8416037 -8.375 41.5625 C-7.77816406 41.0984375 -7.18132813 40.634375 -6.56640625 40.15625 C-4.8125 39.0625 -4.8125 39.0625 -0.8125 39.0625 C1.109375 40.375 1.109375 40.375 2.9375 42.0625 C3.55109375 42.619375 4.1646875 43.17625 4.796875 43.75 C5.25578125 44.183125 5.7146875 44.61625 6.1875 45.0625 C4.79772576 48.33839642 3.28870808 50.07672192 0.4375 52.1875 C-0.21734375 52.68507813 -0.8721875 53.18265625 -1.546875 53.6953125 C-6.86577781 56.90499523 -12.02093687 57.42180822 -18.125 57.375 C-18.8782959 57.37008545 -19.6315918 57.3651709 -20.40771484 57.36010742 C-29.0220128 57.17866563 -36.46438082 55.16704626 -42.8125 49.0625 C-48.71554871 42.04828918 -52.51563364 33.43059177 -52.1015625 24.1328125 C-50.48848249 12.57967187 -44.99054032 5.02674165 -35.8125 -1.9375 C-26.15339762 -8.24420242 -9.03944098 -6.22154169 0 0 Z " fill="#85542F" transform="translate(566.8125,670.9375)"/>
<path d="M0 0 C4.1062519 3.44887051 8.40836005 8.48124443 8.921875 13.953125 C9.08414116 20.69998107 8.81258494 25.90019228 4.68359375 31.4140625 C-0.9145831 37.13947064 -6.79967639 39.48680776 -14.69140625 39.9765625 C-20.99283453 39.79251522 -25.49651469 37.36494016 -30.31640625 33.4140625 C-35.61468717 27.56913355 -35.66750508 21.35722851 -35.58984375 13.80078125 C-35.04671528 7.07374722 -30.91163664 3.78175064 -26.09765625 -0.38671875 C-19.33510989 -4.93957343 -6.78689862 -4.05754369 0 0 Z " fill="#BD964A" transform="translate(458.31640625,764.5859375)"/>
<path d="M0 0 C4.99586287 2.96570886 8.77443487 6.42877335 10.6484375 12.05078125 C11.35320126 19.20240037 10.97208626 25.13199994 6.6484375 31.05078125 C2.6833081 34.81765418 -1.11418084 37.33370817 -6.6640625 37.36328125 C-12.48142332 37.21044418 -16.62987873 35.49856078 -21.1015625 31.73828125 C-25.54130569 26.43525466 -26.87221071 22.27457932 -26.63671875 15.4453125 C-25.80718506 8.47950223 -21.30714268 4.57171728 -16.2265625 0.23828125 C-11.01272286 -1.91526121 -5.27494749 -2.12925621 0 0 Z " fill="#FCFAF7" transform="translate(687.3515625,678.94921875)"/>
<path d="M0 0 C5.01541264 3.00171976 8.81734252 6.38952755 10.70703125 12.05859375 C11.42674629 18.99870311 11.42365279 24.6755825 7.20703125 30.4375 C2.91411046 35.0769847 -1.76255989 37.17980155 -7.98046875 37.43359375 C-13.52378683 37.36076183 -17.22331404 35.81809002 -21.29296875 32.05859375 C-25.25651308 26.91173039 -26.73279923 21.6603395 -26.63671875 15.2109375 C-25.77740687 9.83047332 -22.17882447 5.61053823 -18.16796875 2.12109375 C-12.86421695 -1.68377167 -6.11767976 -2.51168794 0 0 Z " fill="#FCFAF7" transform="translate(421.29296875,678.94140625)"/>
<path d="M0 0 C10.23 0 20.46 0 31 0 C31 2.64 31 5.28 31 8 C23.74 8 16.48 8 9 8 C9 10.64 9 13.28 9 16 C15.27 16 21.54 16 28 16 C28 18.64 28 21.28 28 24 C21.73 24 15.46 24 9 24 C9 27.3 9 30.6 9 34 C16.26 34 23.52 34 31 34 C31 36.31 31 38.62 31 41 C20.77 41 10.54 41 0 41 C0 27.47 0 13.94 0 0 Z " fill="#BC954B" transform="translate(620,762)"/>
<path d="M0 0 C10.23 0 20.46 0 31 0 C31 2.64 31 5.28 31 8 C23.74 8 16.48 8 9 8 C9 10.64 9 13.28 9 16 C15.27 16 21.54 16 28 16 C28 18.64 28 21.28 28 24 C21.73 24 15.46 24 9 24 C9 27.3 9 30.6 9 34 C16.26 34 23.52 34 31 34 C31 36.31 31 38.62 31 41 C20.77 41 10.54 41 0 41 C0 27.47 0 13.94 0 0 Z " fill="#BC954B" transform="translate(573,762)"/>
<path d="M0 0 C1.75390625 1.63671875 1.75390625 1.63671875 3 3 C1.84826645 5.46800047 0.95216435 7.04783565 -1 9 C-4.01305957 8.61121812 -5.39685311 7.73543126 -8 6 C-12.07463524 5.33375155 -16.24356703 5.05503906 -19.953125 7.05078125 C-22.0950226 8.81316786 -23.7539484 10.50789679 -25 13 C-25.37168996 18.57534937 -25.22542715 22.21747009 -22 27 C-19.16269581 29.36442016 -17.35486074 29.9531316 -13.6875 30.4375 C-9.14876591 29.89900612 -5.90984489 28.27481884 -2 26 C0.475 27.98 0.475 27.98 3 30 C2.9375 31.75 2.9375 31.75 2 34 C-4.3360553 38.67467319 -10.29960387 39.43498421 -18 39 C-24.79805407 37.84778745 -29.26144115 34.68094527 -33.328125 29.21484375 C-36.50715261 23.76348303 -37.02859039 18.18056503 -36 12 C-33.34353875 5.17077881 -27.87491291 0.30400227 -21.6875 -3.375 C-13.79293799 -5.21094465 -6.93507885 -4.24046744 0 0 Z " fill="#BD984E" transform="translate(408,765)"/>
<path d="M0 0 C10.23 0 20.46 0 31 0 C31 2.64 31 5.28 31 8 C24.07 8 17.14 8 10 8 C10 11.3 10 14.6 10 18 C16.27 18 22.54 18 29 18 C29 20.97 29 23.94 29 27 C22.73 27 16.46 27 10 27 C10 31.62 10 36.24 10 41 C6.7 41 3.4 41 0 41 C0 27.47 0 13.94 0 0 Z " fill="#BF9A53" transform="translate(482,762)"/>
<path d="M0 0 C10.23 0 20.46 0 31 0 C31 2.64 31 5.28 31 8 C24.07 8 17.14 8 10 8 C10 11.3 10 14.6 10 18 C16.27 18 22.54 18 29 18 C29 20.64 29 23.28 29 26 C22.73 26 16.46 26 10 26 C10 30.95 10 35.9 10 41 C6.7 41 3.4 41 0 41 C0 27.47 0 13.94 0 0 Z " fill="#BE9951" transform="translate(527,762)"/>
<path d="M0 0 C4.1379219 2.06896095 6.27242495 3.75109921 8 8 C8.72798272 12.65570345 8.42814156 16.14371687 6.3125 20.375 C2.92666702 24.21837798 0.68570325 25.78545595 -4.4375 26.4375 C-8.7426591 25.90879625 -10.72712679 24.82657232 -14 22 C-17.04320889 17.53662697 -17.96779073 13.28077116 -17 8 C-12.8275967 0.23069731 -8.35763165 -1.0658255 0 0 Z " fill="#FDFCF5" transform="translate(449,770)"/>
<path d="M0 0 C2.35125 -0.061875 4.7025 -0.12375 7.125 -0.1875 C7.85348145 -0.21481201 8.58196289 -0.24212402 9.33251953 -0.27026367 C14.84191808 -0.33974754 18.32339059 1.30481404 22.875 4.1875 C24.78879277 7.2708328 24.62655006 10.54386904 24 14 C22.20636089 16.8100346 20.98119065 18.50940468 18 20 C16.62451844 20.08308638 15.24514204 20.10736016 13.8671875 20.09765625 C13.14128418 20.09515869 12.41538086 20.09266113 11.66748047 20.09008789 C10.74596191 20.08098389 9.82444336 20.07187988 8.875 20.0625 C5.94625 20.041875 3.0175 20.02125 0 20 C0 13.4 0 6.8 0 0 Z " fill="#FCF9F5" transform="translate(737,678)"/>
<path d="M0 0 C2.866875 -0.0825 5.73375 -0.165 8.6875 -0.25 C9.58170654 -0.28641602 10.47591309 -0.32283203 11.3972168 -0.36035156 C15.44692845 -0.41666694 17.50103852 -0.31241573 21.01953125 1.890625 C23.06482177 4.06904094 23.97413518 5.04300157 24.0546875 8.0234375 C23.99539063 8.79945313 23.93609375 9.57546875 23.875 10.375 C23.83117187 11.14585937 23.78734375 11.91671875 23.7421875 12.7109375 C22.61562283 16.18550012 21.16160158 17.19686723 18 19 C14.87159109 19.46554571 11.84108414 19.37842779 8.6875 19.25 C4.3871875 19.12625 4.3871875 19.12625 0 19 C0 12.73 0 6.46 0 0 Z " fill="#FCFBF6" transform="translate(471,679)"/>
<path d="M0 0 C35.31 0 70.62 0 107 0 C107 34.65 107 69.3 107 105 C105.35 105.66 103.7 106.32 102 107 C102 106.34 102 105.68 102 105 C102.66 105 103.32 105 104 105 C104.79844743 102.17729517 105.13245177 99.65262728 105.15821838 96.72259521 C105.17287942 95.45485071 105.17287942 95.45485071 105.18783665 94.16149521 C105.1936069 93.2390514 105.19937716 92.31660759 105.20532227 91.36621094 C105.21535499 90.37451023 105.22538771 89.38280952 105.23572445 88.36105728 C105.26709685 85.15218692 105.29187552 81.9433042 105.31640625 78.734375 C105.33481085 76.75276284 105.35364759 74.77115464 105.3729248 72.78955078 C105.44135698 65.4430808 105.50141968 58.09653479 105.5625 50.75 C105.706875 34.3325 105.85125 17.915 106 1 C71.02 1 36.04 1 0 1 C0 0.67 0 0.34 0 0 Z " fill="#F8ECDF" transform="translate(492,434)"/>
<path d="M0 0 C1.98 0 3.96 0 6 0 C3.48786422 2.51213578 1.35909195 3.046394 -2.01171875 4.171875 C-3.23802002 4.58598633 -4.46432129 5.00009766 -5.7277832 5.42675781 C-6.6990062 5.75093689 -6.6990062 5.75093689 -7.68984985 6.08166504 C-11.01503256 7.19414004 -14.33159733 8.33168848 -17.6484375 9.46875 C-18.29543106 9.69032776 -18.94242462 9.91190552 -19.60902405 10.14019775 C-34.81791257 15.15139089 -34.81791257 15.15139089 -48 24 C-48.66 23.67 -49.32 23.34 -50 23 C-46.535 18.05 -46.535 18.05 -43 13 C-42.01 14.485 -42.01 14.485 -41 16 C-40.37488525 15.69489502 -39.74977051 15.38979004 -39.10571289 15.07543945 C-31.4058577 11.43437941 -23.55622918 8.7354667 -15.4375 6.1875 C-14.1554231 5.77724188 -12.87352092 5.3664373 -11.59179688 4.95507812 C-2.28950893 2 -2.28950893 2 0 2 C0 1.34 0 0.68 0 0 Z " fill="#B6995E" transform="translate(547,373)"/>
<path d="M0 0 C6.82171856 10.23257785 6.40440135 26.20382573 4.390625 38.015625 C3.68940842 41.37860249 2.90003065 44.68525299 2 48 C1.78730469 48.79792969 1.57460938 49.59585938 1.35546875 50.41796875 C0.9296471 51.95276476 0.47095678 53.47844731 0 55 C-0.33 55 -0.66 55 -1 55 C-1.09765625 48.84765625 -1.09765625 48.84765625 -1 47 C-0.505 46.505 -0.505 46.505 0 46 C0.23075082 44.65252916 0.41153063 43.29622435 0.5625 41.9375 C0.7790625 39.9884375 0.7790625 39.9884375 1 38 C1.66 38 2.32 38 3 38 C2.88893911 34.02031827 2.75859767 30.04148389 2.625 26.0625 C2.5940625 24.94552734 2.563125 23.82855469 2.53125 22.67773438 C2.32786875 16.89831718 1.91658427 11.4965221 0.41552734 5.90014648 C0 4 0 4 0 0 Z " fill="#BB9E62" transform="translate(540,519)"/>
<path d="M0 0 C0.33 0 0.66 0 1 0 C1.33 7.59 1.66 15.18 2 23 C2.66 22.67 3.32 22.34 4 22 C3.67 25.96 3.34 29.92 3 34 C2.34 34 1.68 34 1 34 C-0.72720944 26.41261569 -1.19305929 19.13298816 -1.1875 11.375 C-1.18814453 10.48586914 -1.18878906 9.59673828 -1.18945312 8.68066406 C-1.13506369 2.27012738 -1.13506369 2.27012738 0 0 Z " fill="#B5975A" transform="translate(444,337)"/>
<path d="M0 0 C3.97399494 3.97399494 4.10075393 10.37208284 4.23046875 15.7890625 C4.22655604 17.40110055 4.21219776 19.01314641 4.1875 20.625 C4.18685547 21.43195313 4.18621094 22.23890625 4.18554688 23.0703125 C4.15092881 27.80914034 3.78312019 32.32633871 3 37 C2.67 37 2.34 37 2 37 C2 27.1 2 17.2 2 7 C1.34 7 0.68 7 0 7 C0 4.69 0 2.38 0 0 Z " fill="#F9F0D6" transform="translate(571,281)"/>
<path d="M0 0 C0 3.57821008 -0.49416385 3.87795979 -2.921875 6.3203125 C-3.53546875 6.93777344 -4.1490625 7.55523437 -4.78125 8.19140625 C-5.4309375 8.82949219 -6.080625 9.46757812 -6.75 10.125 C-7.70132812 11.09373047 -7.70132812 11.09373047 -8.671875 12.08203125 C-9.290625 12.69691406 -9.909375 13.31179688 -10.546875 13.9453125 C-11.11245117 14.50750488 -11.67802734 15.06969727 -12.26074219 15.64892578 C-14.17329029 17.13461377 -15.63392449 17.59011336 -18 18 C-15.12956568 13.31994405 -11.97164213 9.82065342 -7.875 6.1875 C-7.33746094 5.69830078 -6.79992187 5.20910156 -6.24609375 4.70507812 C-2.30575505 1.15287752 -2.30575505 1.15287752 0 0 Z " fill="#BC9A55" transform="translate(487,345)"/>
<path d="M0 0 C6.27 0 12.54 0 19 0 C19 0.33 19 0.66 19 1 C13.39 1 7.78 1 2 1 C2.33 2.98 2.66 4.96 3 7 C9.6 7.33 16.2 7.66 23 8 C23 8.33 23 8.66 23 9 C15.41 9 7.82 9 0 9 C0 6.03 0 3.06 0 0 Z " fill="#FEF9E3" transform="translate(629,786)"/>
<path d="M0 0 C2.88049117 1.30682801 4.9608743 2.70501003 7.19921875 4.93359375 C7.76833984 5.50013672 8.33746094 6.06667969 8.92382812 6.65039062 C9.50583984 7.24013672 10.08785156 7.82988281 10.6875 8.4375 C11.28111328 9.02337891 11.87472656 9.60925781 12.48632812 10.21289062 C13.05158203 10.78072266 13.61683594 11.34855469 14.19921875 11.93359375 C14.71315186 12.44978271 15.22708496 12.96597168 15.7565918 13.49780273 C17 15 17 15 18 18 C17.34 18 16.68 18 16 18 C16 17.34 16 16.68 16 16 C15.34 16 14.68 16 14 16 C12.4140625 14.390625 12.4140625 14.390625 10.625 12.25 C7.00099478 7.94605025 7.00099478 7.94605025 3 4 C2.34 4 1.68 4 1 4 C0.01 6.64 -0.98 9.28 -2 12 C-2.66 12 -3.32 12 -4 12 C-3.52309796 10.37433394 -3.04340334 8.74948689 -2.5625 7.125 C-2.29566406 6.22007812 -2.02882813 5.31515625 -1.75390625 4.3828125 C-1 2 -1 2 0 0 Z " fill="#B89D61" transform="translate(553,221)"/>
<path d="M0 0 C0.33 0 0.66 0 1 0 C1.95744681 21.72340426 1.95744681 21.72340426 -4 31 C-4.99 31 -5.98 31 -7 31 C-6.38125 29.88625 -5.7625 28.7725 -5.125 27.625 C-0.8376654 18.97458285 -0.56555834 9.49542682 0 0 Z " fill="#B9995A" transform="translate(526,540)"/>
<path d="M0 0 C0.33 0 0.66 0 1 0 C0.88557539 1.60495567 0.75805306 3.20898119 0.625 4.8125 C0.55539062 5.70582031 0.48578125 6.59914063 0.4140625 7.51953125 C0 10 0 10 -2 13 C-2 11.68 -2 10.36 -2 9 C-2.66 9 -3.32 9 -4 9 C-4.2475 9.763125 -4.495 10.52625 -4.75 11.3125 C-6.10995558 14.2364045 -7.31585826 15.30004356 -10 17 C-10.66 16.67 -11.32 16.34 -12 16 C-11.46890625 15.43152344 -10.9378125 14.86304688 -10.390625 14.27734375 C-6.23975177 9.74016662 -2.7982554 5.47991683 0 0 Z " fill="#B99F69" transform="translate(548,295)"/>
<path d="M0 0 C0 0.66 0 1.32 0 2 C-1.64556566 3.03435556 -3.3170608 4.02763513 -5 5 C-5.86625 5.721875 -6.7325 6.44375 -7.625 7.1875 C-10 9 -10 9 -13 9 C-13 9.99 -13 10.98 -13 12 C-15.3125 13.75 -15.3125 13.75 -18 15 C-18.99 14.67 -19.98 14.34 -21 14 C-4.72900763 0 -4.72900763 0 0 0 Z " fill="#BC9D5D" transform="translate(481,291)"/>
<path d="M0 0 C0 3 0 3 -1.13671875 4.5 C-4.24933577 7.51069253 -7.21181094 9.84994675 -11 12 C-11.495 12.495 -11.99 12.99 -12.5 13.5 C-14.46818389 15.46818389 -16.52959883 16.7331276 -19 18 C-19.66 17.67 -20.32 17.34 -21 17 C-14.10035518 11.19776061 -7.17026999 5.4682362 0 0 Z " fill="#F8F1D8" transform="translate(523,340)"/>
<path d="M0 0 C0.66 0.33 1.32 0.66 2 1 C-2.98005429 4.18170135 -6.61217062 5.15294787 -12.5 5.25 C-13.4384375 5.27578125 -14.376875 5.3015625 -15.34375 5.328125 C-18.40162546 4.95038744 -19.73418595 4.0306824 -22 2 C-20.83082031 2.02320313 -19.66164063 2.04640625 -18.45703125 2.0703125 C-16.90886058 2.08907821 -15.36068297 2.10727755 -13.8125 2.125 C-13.04357422 2.14175781 -12.27464844 2.15851562 -11.48242188 2.17578125 C-7.11025193 2.21331061 -4.0485838 1.81461948 0 0 Z " fill="#BB9D62" transform="translate(456,799)"/>
<path d="M0 0 C0 0.99 0 1.98 0 3 C-0.66 3 -1.32 3 -2 3 C-2.433125 3.86625 -2.433125 3.86625 -2.875 4.75 C-3.431875 5.86375 -3.431875 5.86375 -4 7 C-4.2475 7.70125 -4.495 8.4025 -4.75 9.125 C-6.59652455 11.89478683 -8.87510323 12.18480954 -12 13 C-11.4644661 9.34051835 -10.4907862 7.40709253 -7.640625 5.04296875 C-5.12774282 3.30027786 -2.59466268 1.61807377 0 0 Z " fill="#BB9956" transform="translate(516,377)"/>
<path d="M0 0 C0.66 0 1.32 0 2 0 C0.50845581 3.86510729 -1.2105418 7.57700602 -3 11.3125 C-5.27734872 16.20046798 -6.96421539 20.71749848 -8 26 C-8.33 26 -8.66 26 -9 26 C-8.52013969 20.43109483 -7.70084819 15.32932432 -6 10 C-5.34 10 -4.68 10 -4 10 C-4 8.68 -4 7.36 -4 6 C-3.34 6 -2.68 6 -2 6 C-2 4.68 -2 3.36 -2 2 C-1.34 2 -0.68 2 0 2 C0 1.34 0 0.68 0 0 Z " fill="#B6995C" transform="translate(457,331)"/>
<path d="M0 0 C-1.09699219 0.61488281 -2.19398438 1.22976563 -3.32421875 1.86328125 C-4.77866735 2.67964917 -6.23309323 3.49605756 -7.6875 4.3125 C-8.40873047 4.71662109 -9.12996094 5.12074219 -9.87304688 5.53710938 C-13.61552296 7.639048 -17.33414757 9.76578225 -21 12 C-20.67 10.68 -20.34 9.36 -20 8 C-18.35 7.67 -16.7 7.34 -15 7 C-15 6.34 -15 5.68 -15 5 C-13.06891037 3.96709159 -11.129882 2.94901328 -9.1875 1.9375 C-8.10855469 1.36902344 -7.02960938 0.80054688 -5.91796875 0.21484375 C-3 -1 -3 -1 0 0 Z " fill="#B89B5D" transform="translate(493,306)"/>
<path d="M0 0 C1.32 0.33 2.64 0.66 4 1 C3.34 1 2.68 1 2 1 C1.773125 1.9075 1.54625 2.815 1.3125 3.75 C-0.27118851 9.35648852 -2.70172106 14.65781728 -5 20 C-5.33 20 -5.66 20 -6 20 C-6.28444289 15.91569188 -5.52809879 13.56369186 -3.5625 10 C-1.71935727 6.63928391 -0.59001903 3.79782364 0 0 Z " fill="#F7F1D7" transform="translate(551,220)"/>
<path d="M0 0 C0.66 0.99 1.32 1.98 2 3 C1.33333333 4.66666667 0.66666667 6.33333333 0 8 C-0.36742792 12.55610626 -0.35150823 15.65962893 1.5625 19.8125 C3 23 3 23 2 26 C-2.53907524 18.90769494 -2.88063363 12.31481983 -2 4 C-0.9765625 1.578125 -0.9765625 1.578125 0 0 Z " fill="#B6985A" transform="translate(425,771)"/>
<path d="M0 0 C3.0016419 3.30259808 3.38487514 5.52261632 3.3125 9.9375 C3.30863281 10.95714844 3.30476563 11.97679687 3.30078125 13.02734375 C2.99644886 16.03509637 2.26248479 18.26880782 1 21 C0.21311555 18.22276075 -0.11949924 15.77389923 -0.09765625 12.890625 C-0.09443359 12.13652344 -0.09121094 11.38242187 -0.08789062 10.60546875 C-0.07951172 9.82816406 -0.07113281 9.05085937 -0.0625 8.25 C-0.05798828 7.45722656 -0.05347656 6.66445313 -0.04882812 5.84765625 C-0.03708565 3.89840492 -0.01915146 1.94919262 0 0 Z " fill="#BDA068" transform="translate(464,772)"/>
<path d="M0 0 C0.33 0.66 0.66 1.32 1 2 C-0.94588093 5.8655547 -3.54260751 8.93231924 -6.4375 12.125 C-7.19933594 12.97320312 -7.96117187 13.82140625 -8.74609375 14.6953125 C-10.72749694 16.72135736 -12.68102397 18.3835839 -15 20 C-15.66 19.67 -16.32 19.34 -17 19 C-16.27554688 18.38253906 -15.55109375 17.76507813 -14.8046875 17.12890625 C-8.83361344 11.89824537 -3.98735659 6.96525581 0 0 Z " fill="#F8F1D8" transform="translate(583,346)"/>
<path d="M0 0 C0.66 0.99 1.32 1.98 2 3 C2.99 3.33 3.98 3.66 5 4 C3.56839732 5.00842453 2.12948547 6.00647891 0.6875 7 C-0.51326172 7.8353125 -0.51326172 7.8353125 -1.73828125 8.6875 C-4 10 -4 10 -7 10 C-3.535 5.05 -3.535 5.05 0 0 Z " fill="#B8A16E" transform="translate(504,386)"/>
<path d="M0 0 C0.66 0 1.32 0 2 0 C0.98929671 2.6645814 0.0600516 3.95195872 -2.1875 5.75 C-5.67806663 7.30136295 -8.21813858 7.35677938 -12 7 C-12.66 6.34 -13.32 5.68 -14 5 C-8.06 4.505 -8.06 4.505 -2 4 C-2 3.34 -2 2.68 -2 2 C-1.34 2 -0.68 2 0 2 C0 1.34 0 0.68 0 0 Z " fill="#F3EACF" transform="translate(453,789)"/>
<path d="M0 0 C0.66 0 1.32 0 2 0 C2.95971191 7.19783936 -0.33800119 11.97296029 -4 18 C-4.33 18 -4.66 18 -5 18 C-5.1875 15.6875 -5.1875 15.6875 -5 13 C-3.5625 11.4375 -3.5625 11.4375 -2 10 C-1.28552357 7.89667109 -1.28552357 7.89667109 -1 6 C-0.34 6 0.32 6 1 6 C0.67 4.02 0.34 2.04 0 0 Z " fill="#B79757" transform="translate(544,304)"/>
<path d="M0 0 C0.66 0.33 1.32 0.66 2 1 C1.20335937 1.67095703 1.20335937 1.67095703 0.390625 2.35546875 C-3.47888319 5.66714638 -6.98587305 8.85557544 -10 13 C-10.99 12.67 -11.98 12.34 -13 12 C-4.738041 3.55353075 -4.738041 3.55353075 0 0 Z " fill="#F6EFD5" transform="translate(499,359)"/>
<path d="M0 0 C0 0.99 0 1.98 0 3 C-3.4175071 5.62273801 -6.84602718 7.79753418 -11 9 C-12.32 8.67 -13.64 8.34 -15 8 C-10.05 5.36 -5.1 2.72 0 0 Z " fill="#BA9C5D" transform="translate(515,272)"/>
<path d="M0 0 C1.85546875 0.6015625 1.85546875 0.6015625 4 2 C5.30078125 4.8984375 5.30078125 4.8984375 6.3125 8.375 C6.65925781 9.51710938 7.00601563 10.65921875 7.36328125 11.8359375 C7.98086699 14.90492187 7.86359974 16.11664709 7 19 C6.02016072 16.39608461 5.04110206 13.79188032 4.0625 11.1875 C3.64581055 10.08051758 3.64581055 10.08051758 3.22070312 8.95117188 C2.95322266 8.23896484 2.68574219 7.52675781 2.41015625 6.79296875 C2.16402588 6.1383667 1.91789551 5.48376465 1.66430664 4.80932617 C1.07962967 3.21688185 0.53644441 1.60933324 0 0 Z " fill="#BA9B5E" transform="translate(565,264)"/>
<path d="M0 0 C1.32 0.99 2.64 1.98 4 3 C2.84826645 5.46800047 1.95216435 7.04783565 0 9 C-2.0625 8.75 -2.0625 8.75 -4 8 C-4.33 7.34 -4.66 6.68 -5 6 C-3.35 6 -1.7 6 0 6 C0 4.02 0 2.04 0 0 Z " fill="#B89D64" transform="translate(407,765)"/>
<path d="M0 0 C0.99 0.33 1.98 0.66 3 1 C1.04594482 2.50587739 -0.91281284 4.00478644 -2.875 5.5 C-3.43058594 5.92925781 -3.98617187 6.35851562 -4.55859375 6.80078125 C-8.7734375 10 -8.7734375 10 -11 10 C-11 9.34 -11 8.68 -11 8 C-10.01 8 -9.02 8 -8 8 C-8 7.34 -8 6.68 -8 6 C-7.34 6 -6.68 6 -6 6 C-6 5.34 -6 4.68 -6 4 C-3 2 -3 2 0 2 C0 1.34 0 0.68 0 0 Z " fill="#FBF5DE" transform="translate(529,315)"/>
<path d="M0 0 C0.66 0 1.32 0 2 0 C1.34 2.64 0.68 5.28 0 8 C-0.66 8 -1.32 8 -2 8 C-2 10.97 -2 13.94 -2 17 C-2.33 17 -2.66 17 -3 17 C-3.55353075 5.47835991 -3.55353075 5.47835991 0 0 Z " fill="#C1A873" transform="translate(375,771)"/>
<path d="M0 0 C0 3.58912412 -0.66436554 4.10857029 -3 6.6875 C-3.556875 7.31011719 -4.11375 7.93273437 -4.6875 8.57421875 C-5.120625 9.04472656 -5.55375 9.51523437 -6 10 C-7.32 9.67 -8.64 9.34 -10 9 C-6.7 6.03 -3.4 3.06 0 0 Z " fill="#BB9D5D" transform="translate(532,258)"/>
<path d="M0 0 C1.31157516 2.62315032 0.89649988 4.23033436 0.5625 7.125 C0.46066406 8.03507812 0.35882813 8.94515625 0.25390625 9.8828125 C0.12822266 10.93082031 0.12822266 10.93082031 0 12 C-0.66 12 -1.32 12 -2 12 C-2.33 8.7 -2.66 5.4 -3 2 C-2.01 1.34 -1.02 0.68 0 0 Z " fill="#BDA97C" transform="translate(447,359)"/>
<path d="M0 0 C1.32 0.33 2.64 0.66 4 1 C0.7 3.64 -2.6 6.28 -6 9 C-6.33 8.01 -6.66 7.02 -7 6 C-6.34 6 -5.68 6 -5 6 C-4.67 5.01 -4.34 4.02 -4 3 C-1.9375 2.3125 -1.9375 2.3125 0 2 C0 1.34 0 0.68 0 0 Z " fill="#FBF4DD" transform="translate(488,341)"/>
<path d="M0 0 C0.33 0.99 0.66 1.98 1 3 C-3.455 6.96 -3.455 6.96 -8 11 C-8.66 10.67 -9.32 10.34 -10 10 C-8.71034824 8.62437146 -7.37310707 7.29233607 -6 6 C-5.34 6 -4.68 6 -4 6 C-3.71125 5.38125 -3.4225 4.7625 -3.125 4.125 C-2 2 -2 2 0 0 Z " fill="#F4EDD2" transform="translate(534,329)"/>
<path d="M0 0 C0.66 0.33 1.32 0.66 2 1 C-0.97 3.97 -3.94 6.94 -7 10 C-7.99 9.67 -8.98 9.34 -10 9 C-6.7 6.03 -3.4 3.06 0 0 Z " fill="#F4EDD3" transform="translate(474,316)"/>
<path d="M0 0 C0.66 0 1.32 0 2 0 C0.44298069 4.67105792 -2.08447373 8.08705685 -5 12 C-5.33 11.34 -5.66 10.68 -6 10 C-4.85546875 7.6171875 -4.85546875 7.6171875 -3.1875 4.875 C-2.64480469 3.96492187 -2.10210938 3.05484375 -1.54296875 2.1171875 C-1.03378906 1.41851562 -0.52460937 0.71984375 0 0 Z " fill="#FCF7E0" transform="translate(543,240)"/>
<path d="M0 0 C0.33 0.66 0.66 1.32 1 2 C-3.30769231 7.78461538 -3.30769231 7.78461538 -6.8125 8.875 C-7.8953125 8.936875 -7.8953125 8.936875 -9 9 C-6 6 -3 3 0 0 Z " fill="#BC9E61" transform="translate(555,351)"/>
<path d="M0 0 C3 1 3 1 4.203125 3.1796875 C4.54859375 4.06914062 4.8940625 4.95859375 5.25 5.875 C5.60578125 6.75929688 5.9615625 7.64359375 6.328125 8.5546875 C7 11 7 11 6 14 C4.99515796 12.04414675 3.99626195 10.08523763 3 8.125 C2.1646875 6.48917969 2.1646875 6.48917969 1.3125 4.8203125 C0 2 0 2 0 0 Z " fill="#FBF4DD" transform="translate(580,251)"/>
<path d="M0 0 C0.33 0.99 0.66 1.98 1 3 C-0.41488448 5.76239351 -1.80363095 7.80363095 -4 10 C-4.99 9.67 -5.98 9.34 -7 9 C-6.57847656 8.51789062 -6.15695312 8.03578125 -5.72265625 7.5390625 C-5.17480469 6.90742187 -4.62695312 6.27578125 -4.0625 5.625 C-3.51722656 4.99851562 -2.97195313 4.37203125 -2.41015625 3.7265625 C-0.93041376 2.04367666 -0.93041376 2.04367666 0 0 Z " fill="#BC9E62" transform="translate(517,574)"/>
<path d="M0 0 C0.66 0 1.32 0 2 0 C0.54955729 4.10958767 -1.51110752 7.43258745 -4 11 C-4.33 9.68 -4.66 8.36 -5 7 C-4.34 7 -3.68 7 -3 7 C-2.67 5.68 -2.34 4.36 -2 3 C-1.34 3 -0.68 3 0 3 C0 2.01 0 1.02 0 0 Z " fill="#F9F2D9" transform="translate(518,569)"/>
<path d="M0 0 C1 4 1 4 -0.1875 7.1875 C-2 10 -2 10 -6 11 C-4.02 7.37 -2.04 3.74 0 0 Z " fill="#BB9E61" transform="translate(567,335)"/>
<path d="M0 0 C0.66 0.33 1.32 0.66 2 1 C-0.64 3.64 -3.28 6.28 -6 9 C-6.33 8.34 -6.66 7.68 -7 7 C-2.25 1.125 -2.25 1.125 0 0 Z " fill="#F5EDE0" transform="translate(272,680)"/>
<path d="M0 0 C3.25524265 3.02272532 5.61820737 6.25718301 8 10 C6.68 10 5.36 10 4 10 C3.67 8.35 3.34 6.7 3 5 C2.34 5 1.68 5 1 5 C0.67 3.35 0.34 1.7 0 0 Z " fill="#F8F1D9" transform="translate(466,457)"/>
<path d="M0 0 C0.66 0 1.32 0 2 0 C0.87204037 4.10899581 -0.33510818 8.07561214 -2 12 C-2.98120464 8.94736336 -2.98120464 7.05263664 -2 4 C-1.34 4 -0.68 4 0 4 C0 2.68 0 1.36 0 0 Z " fill="#F5ECCF" transform="translate(523,557)"/>
<path d="M0 0 C0.33 0 0.66 0 1 0 C1.19294408 4.82360189 0.75747614 8.49646738 -1 13 C-2.53690745 10.58959839 -3.09752136 9.49917715 -2.5390625 6.640625 C-2.23742187 5.85171875 -1.93578125 5.0628125 -1.625 4.25 C-1.32851563 3.45078125 -1.03203125 2.6515625 -0.7265625 1.828125 C-0.48679687 1.22484375 -0.24703125 0.6215625 0 0 Z " fill="#F0E7D8" transform="translate(661,462)"/>
<path d="M0 0 C0.33 0 0.66 0 1 0 C1 2.31 1 4.62 1 7 C0.34 7 -0.32 7 -1 7 C-1.33 8.65 -1.66 10.3 -2 12 C-3.12377697 8.69564916 -2.89554742 6.9493138 -1.5625 3.75 C-1.27503906 3.04359375 -0.98757813 2.3371875 -0.69140625 1.609375 C-0.46324219 1.07828125 -0.23507812 0.5471875 0 0 Z " fill="#C3A970" transform="translate(456,383)"/>
<path d="M0 0 C0.66 0 1.32 0 2 0 C0.73058503 3.91402949 -0.51167694 5.79072873 -4 8 C-4 6.35 -4 4.7 -4 3 C-3.01 2.67 -2.02 2.34 -1 2 C-0.67 1.34 -0.34 0.68 0 0 Z " fill="#FAF5DF" transform="translate(563,339)"/>
<path d="M0 0 C0 0.66 0 1.32 0 2 C-6.45 6.09326923 -6.45 6.09326923 -9.234375 5.62109375 C-9.81703125 5.41613281 -10.3996875 5.21117187 -11 5 C-9.54462432 4.16151196 -8.08559627 3.32936066 -6.625 2.5 C-5.81289063 2.0359375 -5.00078125 1.571875 -4.1640625 1.09375 C-2 0 -2 0 0 0 Z " fill="#F9F2DA" transform="translate(518,293)"/>
<path d="M0 0 C-6.75 4 -6.75 4 -9 4 C-8 1 -8 1 -6.1875 -0.25 C-3.66056586 -1.11637742 -2.47778006 -0.88492145 0 0 Z " fill="#F9F3D9" transform="translate(509,276)"/>
<path d="M0 0 C0.99 0.33 1.98 0.66 3 1 C1.8803014 2.00593243 0.7540588 3.0045849 -0.375 4 C-1.00148438 4.556875 -1.62796875 5.11375 -2.2734375 5.6875 C-4 7 -4 7 -6 7 C-6 6.34 -6 5.68 -6 5 C-5.34 5 -4.68 5 -4 5 C-4 4.34 -4 3.68 -4 3 C-3.01 3 -2.02 3 -1 3 C-0.67 2.01 -0.34 1.02 0 0 Z " fill="#F9F2D8" transform="translate(525,262)"/>
<path d="M0 0 C1.65 1.65 3.3 3.3 5 5 C4.34 5.66 3.68 6.32 3 7 C1.68 5.68 0.36 4.36 -1 3 C-0.67 2.01 -0.34 1.02 0 0 Z " fill="#BEA05E" transform="translate(502,493)"/>
<path d="M0 0 C0.66 0.33 1.32 0.66 2 1 C-1.5 5.875 -1.5 5.875 -6 7 C-4.02 4.69 -2.04 2.38 0 0 Z " fill="#BDA165" transform="translate(479,351)"/>
<path d="M0 0 C0.99 0.33 1.98 0.66 3 1 C1.35 2.98 -0.3 4.96 -2 7 C-2.6875 5.1875 -2.6875 5.1875 -3 3 C-1.5625 1.25 -1.5625 1.25 0 0 Z " fill="#FAF2DB" transform="translate(468,360)"/>
<path d="M0 0 C0.99 0.33 1.98 0.66 3 1 C0.69 2.65 -1.62 4.3 -4 6 C-4.66 5.34 -5.32 4.68 -6 4 C-5.01 4 -4.02 4 -3 4 C-3 3.34 -3 2.68 -3 2 C-2.01 1.34 -1.02 0.68 0 0 Z " fill="#FAF4DC" transform="translate(545,357)"/>
<path d="M0 0 C0.66 0.33 1.32 0.66 2 1 C0.29374499 3.78388975 -0.47626739 4.85384206 -3.6875 5.75 C-4.8321875 5.87375 -4.8321875 5.87375 -6 6 C-4 4 -2 2 0 0 Z " fill="#BA9D60" transform="translate(528,318)"/>
</svg>
